<svg xmlns="http://www.w3.org/2000/svg" viewBox="0 0 1200 480" role="img">
  <defs><linearGradient id="g" x1="0" y1="0" x2="1" y2="1"><stop stop-color="#0D1D4B"/><stop offset="1" stop-color="#08122F"/></linearGradient></defs>
  <rect width="1200" height="480" fill="url(#g)"/>
  <g fill="none" stroke="#FFFFFF" stroke-width="2">
    <path d="M275 240h190m270 0h190" stroke-dasharray="7 9"/>
    <rect x="95" y="145" width="180" height="190"/><rect x="465" y="145" width="270" height="190"/><rect x="925" y="145" width="180" height="190"/>
    <circle cx="185" cy="203" r="23"/><path d="M185 226v50m-30-33 30-18 30 18m-42-53c-30-26-30-51 0-76m24 76c30-26 30-51 0-76"/>
    <circle cx="522" cy="197" r="5" fill="#FFFFFF"/><circle cx="565" cy="197" r="5" fill="#FFFFFF"/><circle cx="608" cy="197" r="5" fill="#FFFFFF"/>
    <path d="M510 239h180m-180 24h140m-140 24h160"/>
    <rect x="958" y="178" width="114" height="77"/><path d="M977 230l19-20 18 12 30-31m-86 80h75"/>
    <path d="M447 232l18 8-18 8m460-16 18 8-18 8"/>
  </g>
  <g fill="#FFFFFF" font-family="Lato,Arial,sans-serif">
    <text x="95" y="385" font-size="17" font-weight="700" letter-spacing="2">CONNECTED SENSORS</text>
    <text x="465" y="385" font-size="17" font-weight="700" letter-spacing="2">DATA PROCESSING</text>
    <text x="925" y="385" font-size="17" font-weight="700" letter-spacing="2">MONITORING</text>
    <text x="95" y="414" font-size="13" letter-spacing="1">ILLUSTRATIVE PROJECT MAP</text>
  </g>
</svg>